<svg width="104" height="44" viewBox="0 0 104 44" fill="none" xmlns="http://www.w3.org/2000/svg">
<g clip-path="url(#clip0_364_2)">
<path d="M88.0591 13.9653V37.1723L104.727 41.6565V7.72656L88.0591 13.9653ZM102.011 26.7604C101.598 26.7604 101.267 26.1657 101.267 25.4302C101.267 24.6947 101.599 24.0979 102.011 24.0979C102.424 24.0979 102.756 24.6947 102.756 25.4302C102.756 26.1657 102.422 26.7604 102.011 26.7604Z" fill="#F3F3F3"/>
<path d="M100.257 8.42963L95.6119 10.1976L87.0543 5.87245L87.07 39.8406L90.6541 38.7671L96.3946 40.371L82.5713 45.1282L82.5741 0L100.257 8.42963Z" fill="url(#paint0_linear_364_2)"/>
<path d="M75.5835 3.21875L81.659 6.08284L81.6248 9.4752L79.5725 8.42079L79.5675 38.4153L81.6283 37.7767L81.6319 40.9816L75.5835 43.0593V3.21875Z" fill="#F3F3F3"/>
<path d="M88.0591 13.9653V37.1723L104.727 41.6565V7.72656L88.0591 13.9653ZM102.011 26.7604C101.598 26.7604 101.267 26.1657 101.267 25.4302C101.267 24.6947 101.599 24.0979 102.011 24.0979C102.424 24.0979 102.756 24.6947 102.756 25.4302C102.756 26.1657 102.422 26.7604 102.011 26.7604Z" fill="#F3F3F3"/>
<path d="M100.257 8.42963L95.6119 10.1976L87.0543 5.87245L87.07 39.8406L90.6541 38.7671L96.3946 40.371L82.5713 45.1282L82.5741 0L100.257 8.42963Z" fill="url(#paint1_linear_364_2)"/>
<path d="M75.5835 3.21875L81.659 6.08284L81.6248 9.4752L79.5725 8.42079L79.5675 38.4153L81.6283 37.7767L81.6319 40.9816L75.5835 43.0593V3.21875Z" fill="#F3F3F3"/>
<path d="M10.3273 28.5949C10.3273 32.2858 8.58209 34.1316 5.09312 34.1316C3.59466 34.1316 2.42773 33.72 1.59094 32.896C0.667263 31.9859 0.205078 30.611 0.205078 28.7714C0.205078 27.6192 0.357981 26.4457 0.663788 25.2508L2.85517 24.8516C2.49307 26.0844 2.31236 27.3255 2.31236 28.5769C2.31236 31.1778 3.30484 32.4788 5.2898 32.4788C7.27477 32.4788 8.22068 31.2281 8.22068 28.7259V20.7924H10.3273V28.5956V28.5949ZM4.34389 22.5376C4.1194 22.3149 4.00681 22.0391 4.00681 21.7109C4.00681 21.3827 4.1194 21.1255 4.34389 20.9028C4.56838 20.6801 4.84291 20.5684 5.16818 20.5684C5.49344 20.5684 5.77701 20.6766 6.0015 20.8931C6.22599 21.1158 6.33858 21.3889 6.33858 21.7109C6.33858 22.0329 6.22599 22.3052 6.0015 22.5286C5.77701 22.7575 5.499 22.8727 5.16818 22.8727C4.83735 22.8727 4.56907 22.761 4.34389 22.5383V22.5376Z" fill="#F3F3F3"/>
<path d="M13.605 16.3242H15.7116V28.0851H17.7438V29.7385H13.605V16.3242Z" fill="#F3F3F3"/>
<path d="M17.4533 28.0846H23.3992C23.3617 26.4126 22.9433 25.0935 22.1447 24.1275C21.3642 23.1926 20.1597 22.5141 18.5299 22.0928V20.5504L25.9464 15.9238V18.0137L20.9645 21.0234C23.967 22.3114 25.4682 24.8474 25.4682 28.6314V29.7367H17.4526V28.0832L17.4533 28.0846Z" fill="#F3F3F3"/>
<path d="M29.0176 16.3242H31.1242V28.0851H33.1564V29.7385H29.0176V16.3242Z" fill="#F3F3F3"/>
<path d="M32.8664 28.0848H38.8123C38.7747 26.4128 38.3563 25.0938 37.5578 24.1278C36.7773 23.1928 35.5728 22.5143 33.943 22.093V20.6996L41.3595 16.1013V18.0146L36.3776 21.0243C39.3801 22.3123 40.8813 24.8483 40.8813 28.6323V29.7376H32.8657V28.0841L32.8664 28.0848ZM33.943 17.2341L41.3595 12.6172V14.4568L33.943 19.0834V17.2348V17.2341Z" fill="#F3F3F3"/>
<path d="M40.8438 34.3632L41.0592 32.6815C41.5958 32.8608 42.1768 32.9511 42.8009 32.9511C43.5814 32.9511 44.1555 32.7408 44.5239 32.3195C44.936 31.8486 45.1417 31.0653 45.1417 29.969V20.791H47.2483V29.8297C47.2483 33.0132 45.7283 34.6045 42.6883 34.6045C42.0392 34.6045 41.4241 34.5239 40.8438 34.3632Z" fill="#F3F3F3"/>
<path d="M54.8416 29.7374C51.452 29.7374 49.7568 28.2667 49.7568 25.3246C49.7568 23.9683 50.1655 22.8534 50.9835 21.9805C51.8697 21.0393 53.0839 20.5684 54.6261 20.5684C57.4416 20.5684 58.849 22.0018 58.849 24.8695V29.7374H54.8416ZM56.7987 25.1949C56.7987 23.2133 56.0245 22.2225 54.4767 22.2225C53.6712 22.2225 53.0317 22.4921 52.557 23.0306C52.0949 23.5505 51.8641 24.2448 51.8641 25.1115C51.8641 27.0931 52.9379 28.084 55.0855 28.084H56.7994V25.1949H56.7987Z" fill="#F3F3F3"/>
<path d="M61.2748 28.085H67.2207C67.1831 26.4812 66.796 25.205 66.0593 24.2576C65.3038 23.2916 64.1244 22.5828 62.5196 22.1305L63.0534 20.375C65.1885 20.9818 66.7488 21.914 67.735 23.1709C68.7713 24.5024 69.289 26.3296 69.289 28.6518V29.7385H61.2734V28.085H61.2748Z" fill="#F3F3F3"/>
</g>
<defs>
<linearGradient id="paint0_linear_364_2" x1="91.4233" y1="4.13561" x2="87.6735" y2="43.2422" gradientUnits="userSpaceOnUse">
<stop stop-color="#EC1C24"/>
<stop offset="1" stop-color="#AC1015"/>
</linearGradient>
<linearGradient id="paint1_linear_364_2" x1="91.4233" y1="4.13561" x2="87.6735" y2="43.2422" gradientUnits="userSpaceOnUse">
<stop stop-color="#EC1C24"/>
<stop offset="1" stop-color="#AC1015"/>
</linearGradient>
<clipPath id="clip0_364_2">
<rect width="103.795" height="44" fill="white" transform="translate(0.205078)"/>
</clipPath>
</defs>
</svg>
